<?xml version="1.0" encoding="utf-8"?>
<!-- Generator: Adobe Illustrator 24.2.1, SVG Export Plug-In . SVG Version: 6.00 Build 0)  -->
<svg version="1.1" id="Layer_1" xmlns="http://www.w3.org/2000/svg" xmlns:xlink="http://www.w3.org/1999/xlink" x="0px" y="0px"
	 viewBox="0 0 40 40" style="enable-background:new 0 0 40 40;" xml:space="preserve">
<style type="text/css">
	.st0{fill:#353535;}
	.st1{enable-background:new    ;}
	.st2{fill:#373737;}
	.st3{fill-rule:evenodd;clip-rule:evenodd;fill:#373737;}
	.st4{fill:#1A1A1A;}
	.st5{fill-rule:evenodd;clip-rule:evenodd;fill:#353535;}
	.st6{fill:#333333;}
</style>
<g>
	<rect x="26.14318" y="7.6003" class="st6" width="1.39583" height="3.48957"/>
	<rect x="33.82024" y="17.3711" class="st6" width="3.48957" height="1.39583"/>
	
		<rect x="31.26506" y="11.20236" transform="matrix(0.70711 -0.70711 0.70711 0.70711 1.25354 26.82696)" class="st6" width="3.48944" height="1.39591"/>
	
		<rect x="32.31182" y="22.49298" transform="matrix(0.70711 -0.70711 0.70711 0.70711 -7.4703 30.4405)" class="st6" width="1.39591" height="3.48944"/>
	
		<rect x="19.97441" y="10.15554" transform="matrix(0.70711 -0.70711 0.70711 0.70711 -2.36002 18.10305)" class="st6" width="1.39579" height="3.48956"/>
	<path class="st6" d="M24.80528,21.75791c-0.42566,0-0.83897,0.05248-1.23734,0.14279
		c-1.21116-2.66896-3.90874-4.5296-7.0504-4.5296c-3.91384,0-7.13967,2.88637-7.65494,6.63089
		c-0.20714-0.02966-0.41742-0.05046-0.63279-0.05046c-2.44103,0-4.41989,1.96358-4.41989,4.38688
		c0,2.42288,1.97886,4.38681,4.41989,4.38681h16.57547c3.05205,0,5.52539-2.45498,5.52539-5.48344
		C30.33067,24.21289,27.85732,21.75791,24.80528,21.75791z"/>
	<path class="st6" d="M24.34081,20.37848c0.1557-0.01089,0.31078-0.0164,0.46447-0.0164c2.05828,0,3.90427,0.90275,5.17301,2.32482
		c1.4763-1.00465,2.44613-2.69793,2.44613-4.61789c0-3.08339-2.49993-5.58331-5.58332-5.58331
		c-2.83493,0-5.17099,2.11489-5.53014,4.85197C22.53433,18.09016,23.58155,19.12405,24.34081,20.37848z"/>
</g>
</svg>
